Coordinates
version=1
nRows=9
nColumns=24
inDegrees=yes

Units are S.I. units (second, meters, Newtons, ...)
Angles are in degrees.

endheader
time	pelvis_tilt	pelvis_list	pelvis_rotation	pelvis_tx	pelvis_ty	pelvis_tz	hip_flexion_r	hip_adduction_r	hip_rotation_r	knee_angle_r	ankle_angle_r	subtalar_angle_r	mtp_angle_r	hip_flexion_l	hip_adduction_l	hip_rotation_l	knee_angle_l	ankle_angle_l	subtalar_angle_l	mtp_angle_l	lumbar_extension	lumbar_bending	lumbar_rotation
      0.47900000	     -3.54948497	      1.69262188	      3.32889652	     -0.74929866	      1.02265596	      0.27591955	     22.60489124	      0.56849866	     -6.73375785	      4.70191856	      5.54674164	     -1.30053546	     13.51664544	    -10.08050178	      5.58471233	      6.40552066	    -12.30456057	      7.49278487	     -4.62861689	      2.89609589	     -3.58987659	     -4.06908480	     -4.38300263
      0.48316667	     -3.55661045	      1.64282537	      3.46707502	     -0.74346869	      1.02223012	      0.27595118	     22.58046664	      0.64024882	     -6.36343722	      4.28747442	      5.79925692	     -1.48002552	     13.04313397	     -9.99189806	      5.48885987	      6.28164297	    -13.12732687	      7.49054691	     -4.30623713	      2.65476650	     -3.51810480	     -4.02911758	     -4.30137896
      0.48733333	     -3.47418386	      1.55261800	      3.61094477	     -0.73753729	      1.02195866	      0.27595623	     22.42882497	      0.75857595	     -5.93498637	      3.87311176	      6.06798504	     -1.80355384	     10.63503692	    -10.02356816	      5.35095204	      6.27388750	    -13.90798904	      7.42169826	     -4.13574572	      1.92690604	     -3.54600586	     -3.89715740	     -4.27033035
      0.49150000	     -3.36962933	      1.46798858	      3.75474165	     -0.73159009	      1.02173392	      0.27593001	     22.28978300	      0.86790509	     -5.64875766	      3.35223329	      6.31833473	     -1.99494001	     10.64386179	    -10.05646528	      5.22260477	      6.26520317	    -14.72247766	      7.26982416	     -4.08774945	      1.94734419	     -3.60113032	     -3.75352183	     -4.39073644
      0.49566667	     -3.29375661	      1.36172006	      3.90766184	     -0.72561582	      1.02146129	      0.27595858	     22.14967056	      1.00522559	     -5.24685609	      2.87926786	      6.34381068	     -2.49495055	     10.67494483	     -9.99763506	      5.04911628	      6.09660684	    -15.65511530	      7.21532915	     -3.71035412	      2.09010600	     -3.64061407	     -3.62658676	     -4.57765324
      0.49983333	     -3.16865824	      1.25808882	      4.04764163	     -0.71959533	      1.02126469	      0.27599509	     21.95882539	      1.14927735	     -4.85597630	      2.37758822	      6.34575792	     -3.03459492	     10.73588807	     -9.99143735	      4.87940823	      5.94993500	    -16.57848173	      7.06605344	     -3.45244052	      2.31676109	     -3.71889139	     -3.48376094	     -4.63710714
      0.50400000	     -3.01535215	      1.16091453	      4.18857755	     -0.71353474	      1.02112224	      0.27603940	     21.72159024	      1.29321500	     -4.43387044	      1.89549973	      6.25544462	     -3.72080225	     11.37511854	    -10.01417677	      4.71653940	      5.85630194	    -17.49057479	      6.73118773	     -3.33428298	      4.60540213	     -3.81896365	     -3.35729696	     -4.59706730
      0.50816667	     -2.93875472	      1.02949384	      4.32477713	     -0.70744912	      1.02086453	      0.27608582	     21.59951915	      1.46668795	     -4.12493056	      1.33580375	      6.18654643	     -4.19161197	     11.40842159	     -9.89362480	      4.51044576	      5.62179758	    -18.52498673	      6.52450004	     -3.03696836	      4.72419742	     -3.81196580	     -3.15117263	     -4.77955746
      0.51233333	     -2.77278275	      0.92283284	      4.46572839	     -0.70135829	      1.02075487	      0.27617467	     21.34970588	      1.63016451	     -3.74378463	      0.84415581	      5.90589609	     -4.97927060	     11.46999250	     -9.85792401	      4.31297342	      5.38222321	    -19.56140451	      6.27596433	     -2.73067845	      4.97084910	     -3.92996322	     -3.01878705	     -4.83893662
